<svg width="191" height="18" viewBox="0 0 191 18" fill="none" xmlns="http://www.w3.org/2000/svg">
<path fill-rule="evenodd" clip-rule="evenodd" d="M62.029 9.95437H54.4965V15.9094H52.8579V2.71924H54.4965V8.42888H62.029V2.71924H63.6673V15.9094H62.029V9.95437" fill="#003A70"/>
<path fill-rule="evenodd" clip-rule="evenodd" d="M80.0149 9.35235C79.9961 12.7986 77.8491 16.173 73.3298 16.173C68.8099 16.173 66.6257 12.8178 66.6257 9.35235C66.6257 5.52607 69.1864 2.49365 73.3483 2.49365C77.8114 2.5122 80.0338 5.8663 80.0149 9.35235V9.35235ZM73.3486 3.9999C69.9965 3.9999 68.264 6.46797 68.264 9.35167C68.264 12.0262 69.8835 14.6265 73.3486 14.6265C76.8133 14.6265 78.3766 11.9514 78.3766 9.35167C78.3954 6.67504 76.7945 4.03761 73.3486 3.9999V3.9999Z" fill="#003A70"/>
<path fill-rule="evenodd" clip-rule="evenodd" d="M81.0703 4.18877V2.71924H91.6907V4.18877H87.1905V15.9094H85.5708V4.18877H81.0703" fill="#003A70"/>
<path fill-rule="evenodd" clip-rule="evenodd" d="M94.0454 2.71924H103.311V4.22647H95.6655V8.35348H102.991V9.87926H95.6655V14.3444H103.612V15.9094H94.0454V2.71924" fill="#003A70"/>
<path fill-rule="evenodd" clip-rule="evenodd" d="M108.227 14.3821H115.402V15.9094H106.588V2.71924H108.227V14.3821" fill="#003A70"/>
<path fill-rule="evenodd" clip-rule="evenodd" d="M132.464 5.52569C131.429 4.52805 129.903 3.98105 128.567 3.98105C125.176 3.98105 123.331 6.52482 123.331 9.42737C123.331 12.1019 125.026 14.6077 128.604 14.6077C129.847 14.6077 131.109 14.2124 132.201 13.2713V10.1422H128.095V8.69186H133.688V13.9114C132.351 15.3441 130.714 16.1535 128.585 16.1535C123.896 16.1535 121.712 12.97 121.712 9.42737C121.693 5.48828 124.273 2.45557 128.567 2.45557C130.318 2.45557 132.069 3.11418 133.406 4.43289L132.464 5.52569" fill="#003A70"/>
<path fill-rule="evenodd" clip-rule="evenodd" d="M141.656 11.1606H138.455V15.9094H136.816V2.71924H142.805C145.781 2.71924 147.268 4.79202 147.268 6.9405C147.287 8.93698 146.194 10.8027 143.483 11.0286L147.833 15.9094H145.761L141.656 11.1606V11.1606ZM145.629 6.97862C145.648 5.65991 144.707 4.18918 142.805 4.18918H138.455V9.69116H142.729C144.707 9.69116 145.629 8.467 145.629 6.97862V6.97862Z" fill="#003A70"/>
<path fill-rule="evenodd" clip-rule="evenodd" d="M163.068 9.35186C163.049 12.7981 160.902 16.1726 156.383 16.1726C151.863 16.1726 149.679 12.8173 149.679 9.35186C149.679 5.52558 152.24 2.49316 156.402 2.49316C160.865 2.51172 163.087 5.86581 163.068 9.35186V9.35186ZM156.402 3.99941C153.05 3.99941 151.317 6.46748 151.317 9.35118C151.317 12.0257 152.937 14.626 156.402 14.626C159.867 14.626 161.43 11.9509 161.43 9.35118C161.449 6.67455 159.848 4.03712 156.402 3.99941V3.99941Z" fill="#003A70"/>
<path fill-rule="evenodd" clip-rule="evenodd" d="M176.628 2.73809V10.6522C176.628 14.3067 174.161 16.1539 171.28 16.1539C168.474 16.1539 165.875 14.3444 165.875 10.6522V2.73809H167.494V10.6522C167.494 13.2717 169.246 14.6457 171.28 14.6457C173.313 14.6457 175.008 13.2151 175.008 10.6333V2.71924H176.609L176.628 2.73809Z" fill="#003A70"/>
<path fill-rule="evenodd" clip-rule="evenodd" d="M181.884 15.9094H180.264V2.71924H186.252C192.316 2.71924 192.316 11.631 186.252 11.6498H181.884V15.9094V15.9094ZM186.252 4.24463H181.884V10.1236H186.252C190.132 10.1236 190.132 4.24463 186.252 4.24463V4.24463Z" fill="#003A70"/>
<path fill-rule="evenodd" clip-rule="evenodd" d="M29.3474 17.9999V10.6774H21.7793V17.9999H18.4961V0.298828H21.7793V7.63989H29.3474V0.298828H32.6052V17.9999H29.3474V17.9999ZM12.6469 4.13658C12.8972 4.59531 13.0318 5.24703 13.0318 6.01187V18H16.2247V5.00705C16.2247 3.77421 15.9592 2.72481 15.4334 1.88486C14.6271 0.654121 13.2968 0 11.5933 0C9.35621 0 7.67871 1.06826 6.19949 2.51295L5.46347 3.23081V0.298933H0V2.86126H2.4192V18H5.61271V4.95289L5.76942 4.82362C6.86972 3.91066 8.54004 2.82355 10.254 2.82355C11.6615 2.82355 12.3323 3.53662 12.6469 4.13658V4.13658Z" fill="#003A70"/>
<path fill-rule="evenodd" clip-rule="evenodd" d="M42.5149 0.132324H43.0773V17.9995H42.5149V0.132324Z" fill="#003A70"/>
</svg>
